<?xml version="1.0" encoding="UTF-8"?>
<!DOCTYPE svg PUBLIC "-//W3C//DTD SVG 1.1//EN" "http://www.w3.org/Graphics/SVG/1.1/DTD/svg11.dtd">
<!-- Creator: CorelDRAW 2019 (64-Bit) -->
<svg xmlns="http://www.w3.org/2000/svg" xml:space="preserve" width="255px" height="232px" version="1.1" style="shape-rendering:geometricPrecision; text-rendering:geometricPrecision; image-rendering:optimizeQuality; fill-rule:evenodd; clip-rule:evenodd"
viewBox="0 0 144.32 131.15"
 xmlns:xlink="http://www.w3.org/1999/xlink">
 <defs>
  <style type="text/css">
   <![CDATA[
    .fil0 {fill:#968399}
   ]]>
  </style>
 </defs>
 <g id="Capa_x0020_1">
  <metadata id="CorelCorpID_0Corel-Layer"/>
  <path class="fil0" d="M53.82 22.5l15.22 8.56c0.38,0.22 0.64,0.57 0.74,0.97l6.47 25.61 17.77 -20.12c0.28,-0.32 0.67,-0.5 1.07,-0.52l9.47 -0.48 -0.31 -14.57 -24.11 -21.95 -4.56 0.12 -21.76 22.38zm26.86 -14.45c3.04,-0.08 5.57,2.33 5.65,5.37 0.07,3.04 -2.33,5.58 -5.38,5.65 -3.04,0.08 -5.57,-2.33 -5.65,-5.37 -0.07,-3.04 2.33,-5.57 5.38,-5.65z"/>
  <path class="fil0" d="M44.15 99.59c-0.15,-0.54 -0.24,-1.1 -0.27,-1.65 -0.13,-2.1 0.53,-4.24 2.03,-5.94l7.39 -8.37 1.42 -1.61 20.3 -22.98 -6.73 -26.64 -15.04 -8.46 -1.51 -0.79 0 -0.06 -12.59 -7.08 -4.52 1.17c-5.38,8.86 -10.81,17.83 -17.05,28.1l9.46 36.82c4.57,6.12 10.41,12.13 17.11,17.49zm-5.75 -74.54c2.95,-0.76 5.96,1.02 6.72,3.97 0.76,2.95 -1.02,5.95 -3.97,6.71 -2.95,0.76 -5.96,-1.02 -6.71,-3.97 -0.76,-2.94 1.01,-5.95 3.96,-6.71z"/>
  <path class="fil0" d="M93.09 119.54l40.08 -45.02c0,0 0.68,-0.73 0.87,-1.22 0.19,-0.48 0.12,-1.56 0.12,-1.56l-2.66 -31.79 -3.51 -3.08 -21.91 1.11 -1.49 0.07 -9.43 0.48 -18.46 20.91 -1.23 1.4 -20.69 23.43 -1.42 1.61 -6.3 7.14c-2.23,2.52 -2.19,6.3 -0.04,8.78 3.04,2.27 6.24,4.4 9.55,6.34 2.03,1.18 4.09,2.3 6.2,3.33l3.05 1.43c8.74,3.9 18.02,6.36 27.27,6.64zm30.97 -73.79c2.28,2.02 2.5,5.51 0.48,7.79 -2.02,2.28 -5.5,2.5 -7.78,0.48 -2.28,-2.01 -2.5,-5.5 -0.49,-7.78 2.02,-2.28 5.5,-2.5 7.79,-0.49z"/>
  <path class="fil0" d="M30.75 23.58l-0.04 0.01 -0.03 0 -0.03 0.01 -0.04 0.01 -0.39 0.08 -0.03 0.01 -0.03 0 -0.03 0.01 -0.04 0.01 -0.03 0 0 0 -0.03 0.01 -0.03 0.01 -0.04 0 -0.03 0.01 -0.03 0.01 -0.03 0.01 -0.04 0 -0.03 0.01 -0.03 0.01 -0.03 0 -0.04 0.01 -0.03 0.01 -0.03 0.01 -0.03 0 -0.03 0.01 -0.04 0.01 -0.03 0 -0.03 0.01 -0.03 0.01 -0.1 0.02 -0.03 0.01 -0.03 0 -0.03 0.01 -0.04 0.01 -0.03 0.01 -0.03 0 -0.03 0.01 -0.03 0.01 -0.04 0 -0.03 0.01 -0.03 0.01 -0.03 0.01 -0.03 0 -0.03 0.01 -0.04 0.01 -0.03 0.01 -0.03 0 -0.03 0.01 -0.06 0.02 -0.04 0c-13.37,3.17 -21.05,9.59 -24.98,17.21 -17.46,33.99 30.98,74.13 59.18,84.16 3.94,1.41 8.1,2.56 12.37,3.45l0.14 0.03 0.15 0.03 0.09 0.02 0.05 0.01 0.15 0.03 0.14 0.03 0.15 0.03 0.14 0.03 0.04 0 0.11 0.03 0.15 0.03 0.14 0.02 0.15 0.03 0.11 0.02 0.03 0.01 0.15 0.03 0.15 0.03 0.14 0.02 0.15 0.03 0.04 0.01 0.1 0.02 0.15 0.02 0.15 0.03 0.14 0.03 0.15 0.02 0.15 0.03 0.14 0.03 0.15 0.02 0.15 0.03 0.05 0.01 0.09 0.01 0.15 0.03 0.15 0.02 0.14 0.03 0.14 0.02 0.01 0 0.15 0.03 0.15 0.02 0.14 0.03 0.15 0.02 0.07 0.01 0.08 0.01 0.14 0.03 0.15 0.02 0.15 0.02 0.15 0.03 0.14 0.02 0.15 0.02 0.15 0.02 0.15 0.02 0.08 0.02 0.06 0.01 0.15 0.02 0.15 0.02 0.15 0.02 0.14 0.02 0.02 0 0.13 0.02 0.15 0.02 0.15 0.02 0.15 0.02 0.09 0.01 0.05 0.01 0.15 0.02 0.15 0.02 0.15 0.02 0.15 0.02 0.02 0 0.12 0.02 0.3 0.04 0.15 0.01 0.1 0.02 0.05 0 0.14 0.02 0.15 0.02c6.84,0.81 13.71,0.98 20.18,0.49 29.18,-2.24 42.78,-24.44 38.82,-42.39 -1.17,-5.32 -3.89,-10.27 -8.2,-14.22l-0.02 -0.01 -0.01 -0.01 -0.01 -0.01 -0.02 -0.02 -0.01 -0.01 -0.02 -0.02 -0.02 -0.01 -0.02 -0.02 -0.01 -0.02 -0.02 -0.01 -0.02 -0.02 -0.02 -0.01 -0.01 -0.02 -0.02 -0.02 -0.02 -0.01 0 0 -0.02 -0.02 -0.02 -0.01 -0.01 -0.02 -0.02 -0.02 -0.02 -0.01 -0.02 -0.02 -0.02 -0.01 -0.01 -0.02 -0.02 -0.01 -0.02 -0.02 -0.02 -0.02 -0.02 -0.01 0 -0.01 -0.01 -0.01 -0.02 -0.01 -0.02 -0.02 -0.02 -0.01 -0.02 -0.02 -0.01 -0.02 -0.02 -0.01 -0.02 -0.02 -0.02 -0.01 -0.02 -0.02 -0.01 -0.01 -0.02 -0.02 -0.02 -0.01 0 -0.01 -0.02 -0.01 -0.02 -0.02 -0.02 -0.01 -0.01 -0.02 -0.02 -0.01 -0.02 -0.02 -0.06 -0.05 -0.01 -0.01 -0.02 -0.02 -0.02 -0.01 -0.01 -0.01 -0.01 -0.01 -0.04 -0.03 -0.02 -0.01 -0.01 -0.02 -0.02 -0.01 -0.02 -0.02 -0.04 -0.03 -0.02 -0.02 -0.02 -0.01 -0.01 -0.02 -0.02 -0.01 0.01 0.02 0.01 0.03 0.01 0.02 0.01 0.02 0.01 0.03 0.01 0.02 0.02 0.03 0 0 0.01 0.02 0.01 0.02 0.01 0.03 0.01 0.02 0.01 0.03 0.01 0.02 0.01 0.03 0.01 0 0 0.02 0.01 0.02 0.02 0.03 0.01 0.02 0.01 0.03 0.01 0.02 0.01 0.02 0 0.01 0.01 0.02 0.01 0.02 0.01 0.02 0.01 0.03 0.01 0.02 0.02 0.03 0.01 0.02 0 0.02 0.01 0 0.01 0.03 0.01 0.02 0.01 0.03 0.01 0.02 0.01 0.02 0.01 0.03 0.01 0.02 0 0 0.01 0.03 0.01 0.02 0.01 0.02 0.02 0.03 0.01 0.02 0.01 0.03 0.01 0.02 0.01 0.02 0.01 0.03 0.01 0.02 0.01 0.02 0.01 0.03 0.01 0.02 0.01 0.03 0 0 0.01 0.02 0.01 0.02 0.01 0.03 0.01 0.02 0.01 0.02 0.01 0.03 0.02 0.02 0 0.01 0.01 0.02 0.02 0.04 0.01 0.03 0.01 0.02 0.01 0.02 0.01 0.03c1.37,3.11 2.42,6.03 3.14,8.75 6.63,24.64 -23.77,37.67 -43.69,37.54 -0.22,0 -0.44,0 -0.66,-0.01l-0.04 0 -0.03 0 -0.03 0 -0.03 0 -0.03 0 -0.03 0 -0.03 0 -0.03 0 -0.04 0 -0.03 0 -0.03 0 -0.5 -0.02 -0.03 0 -0.03 0 -0.03 0 -0.03 0c-0.31,-0.01 -0.63,-0.02 -0.94,-0.04l-0.03 0 -0.03 0 -0.03 0c-10.02,-0.51 -20.02,-3.48 -29.34,-8.01l-0.04 -0.02 -0.05 -0.02 -0.04 -0.02 -0.04 -0.02 -0.05 -0.02 -0.04 -0.03 -0.05 -0.02 -0.67 -0.33 -0.04 -0.02 -0.05 -0.02 -0.04 -0.03 -0.04 -0.02 -0.05 -0.02 -0.04 -0.02 -0.05 -0.03 -0.04 -0.02 -0.05 -0.02 -0.04 -0.02 -0.04 -0.03 -0.05 -0.02 -0.04 -0.02 -0.53 -0.27 -0.05 -0.02 -0.04 -0.03 -0.05 -0.02 -0.26 -0.14 -0.05 -0.02 -0.08 -0.05 -0.05 -0.02 -0.04 -0.02 -0.05 -0.03 -0.04 -0.02 -0.04 -0.02c-1.49,-0.79 -2.95,-1.61 -4.39,-2.47l-0.15 -0.08 -0.15 -0.09 -0.9 -0.55 -0.14 -0.09 -0.15 -0.09 -0.74 -0.46 -0.15 -0.09 -0.15 -0.09 -0.14 -0.1 -0.59 -0.37 -0.14 -0.1 -0.15 -0.09 -0.15 -0.1 -0.14 -0.09 -0.58 -0.39 -0.15 -0.09 -0.14 -0.1 -0.15 -0.1 -0.71 -0.48 -0.15 -0.1 -0.14 -0.1 -0.14 -0.1 -0.14 -0.1 -0.57 -0.39 -0.14 -0.1 -0.14 -0.1 -0.15 -0.1 -0.14 -0.1 -0.56 -0.41 -0.14 -0.1 -0.14 -0.1 -0.14 -0.1 -0.14 -0.1 -0.55 -0.41 -0.14 -0.11 -0.14 -0.1 0 0c-6.91,-5.17 -13.04,-11.05 -17.98,-17.12l-0.04 -0.05 -0.04 -0.05 -0.04 -0.04 -0.03 -0.05 -0.04 -0.05c-0.21,-0.25 -0.41,-0.5 -0.61,-0.76l-0.03 -0.04 -0.04 -0.05 -0.04 -0.05 -0.04 -0.04 -0.44 -0.57 -0.04 -0.05 -0.03 -0.05 -0.04 -0.04 -0.03 -0.05 -0.04 -0.05 -0.04 -0.05 -0.03 -0.04 -0.04 -0.05 -0.5 -0.67 -0.04 -0.04 -0.03 -0.05 -0.04 -0.05 -0.03 -0.05 -0.04 -0.04c-0.82,-1.11 -1.6,-2.21 -2.33,-3.32 -15.19,-22.87 -19.25,-46.58 5.21,-55.17l0 0 0.04 -0.01c0.25,-0.09 0.52,-0.18 0.78,-0.27l0.03 -0.01 0.04 -0.01 0.03 -0.01 0.04 -0.02 0.07 -0.02 0.03 -0.01 0.04 -0.01 0 0c0.37,-0.12 0.74,-0.24 1.13,-0.35z"/>
 </g>
</svg>
