<?xml version="1.0" encoding="UTF-8"?>
<!DOCTYPE svg PUBLIC "-//W3C//DTD SVG 1.1//EN" "http://www.w3.org/Graphics/SVG/1.1/DTD/svg11.dtd">
<!-- Creator: CorelDRAW 2019 (64-Bit) -->
<svg xmlns="http://www.w3.org/2000/svg" xml:space="preserve" width="637px" height="232px" version="1.1" style="shape-rendering:geometricPrecision; text-rendering:geometricPrecision; image-rendering:optimizeQuality; fill-rule:evenodd; clip-rule:evenodd"
viewBox="0 0 901.49 327.63"
 xmlns:xlink="http://www.w3.org/1999/xlink">
 <defs>
  <style type="text/css">
   <![CDATA[
    .fil0 {fill:#FEFEFE}
   ]]>
  </style>
 </defs>
 <g id="Capa_x0020_1">
  <metadata id="CorelCorpID_0Corel-Layer"/>
  <path class="fil0" d="M413.45 213.22l59.75 0 0 -10.93 -46.97 0 0 -36.66 38.35 0 0 -10.93 -38.35 0 0 -31.73 45.43 0 0 -10.78 -58.21 0 0 101.03zm99.79 1.85c4.62,0 9.71,-1.39 13.87,-2.77l-2.47 -9.55c-2.46,0.92 -5.85,2 -8.47,2 -8.62,0 -11.55,-5.24 -11.55,-14.48l0 -41.58 20.17 0 0 -10.32 -20.17 0 0 -20.94 -10.63 0 -1.54 20.94 -11.7 0.77 0 9.55 11.09 0 0 41.43c0,14.78 5.39,24.95 21.4,24.95zm28.5 -1.85l12.62 0 0 -74.85 -12.62 0 0 74.85zm6.46 -90.25c4.93,0 8.78,-3.39 8.78,-8.16 0,-4.93 -3.85,-8.16 -8.78,-8.16 -4.92,0 -8.78,3.23 -8.78,8.16 0,4.77 3.86,8.16 8.78,8.16zm60.99 92.1c8.93,0 17.4,-3.54 24.18,-9.55l-5.54 -8.47c-4.63,4.16 -10.63,7.54 -17.56,7.54 -13.71,0 -23.1,-11.54 -23.1,-28.64 0,-17.25 9.85,-28.95 23.41,-28.95 6,0 10.62,2.77 14.93,6.62l6.47 -8.32c-5.23,-4.77 -12.01,-8.77 -21.87,-8.77 -19.25,0 -36.03,14.32 -36.03,39.42 0,24.8 15.24,39.12 35.11,39.12zm66.53 0c18.33,0 34.65,-14.32 34.65,-39.12 0,-25.1 -16.32,-39.42 -34.65,-39.42 -18.33,0 -34.65,14.32 -34.65,39.42 0,24.8 16.32,39.12 34.65,39.12zm0 -10.48c-12.78,0 -21.56,-11.54 -21.56,-28.64 0,-17.25 8.78,-28.95 21.56,-28.95 12.94,0 21.56,11.7 21.56,28.95 0,17.1 -8.62,28.64 -21.56,28.64zm54.36 8.63l12.63 0 0 -48.05c5.09,-12.63 12.63,-17.25 18.95,-17.25 3.07,0 4.77,0.46 7.23,1.23l2.47 -11.08c-2.47,-1.08 -4.78,-1.54 -8.01,-1.54 -8.47,0 -16.17,6 -21.25,15.4l-0.46 0 -1.08 -13.56 -10.48 0 0 74.85zm72.39 1.85c17.71,0 27.41,-10.17 27.41,-22.33 0,-14.17 -12.01,-18.64 -22.79,-22.64 -8.47,-3.23 -16.64,-5.85 -16.64,-12.94 0,-5.7 4.32,-10.78 13.71,-10.78 6.62,0 12.01,2.77 17.1,6.62l6 -8.01c-5.7,-4.62 -13.86,-8.46 -23.25,-8.46 -16.17,0 -25.72,9.24 -25.72,21.25 0,12.63 11.7,17.71 22.33,21.56 8.16,3.08 17.09,6.47 17.09,14.17 0,6.47 -4.92,11.7 -14.78,11.7 -8.93,0 -15.55,-3.69 -22.02,-8.93l-6.32 8.47c7.09,5.85 17.25,10.32 27.88,10.32zm62.22 0c9.39,0 17.71,-4.93 24.79,-10.78l0.46 0 1.08 8.93 10.47 0 0 -45.89c0,-18.64 -7.7,-30.8 -26.02,-30.8 -12.02,0 -22.49,5.23 -29.42,9.7l4.93 8.78c5.85,-4.01 13.71,-8.01 22.33,-8.01 12.32,0 15.4,9.24 15.4,18.79 -31.88,3.54 -45.89,11.7 -45.89,28.02 0,13.4 9.39,21.26 21.87,21.26zm3.69 -10.17c-7.39,0 -13.24,-3.54 -13.24,-12.01 0,-9.55 8.62,-15.71 33.57,-18.79l0 20.79c-7.24,6.47 -13.09,10.01 -20.33,10.01z"/>
  <path class="fil0" d="M134.45 56.21l38.01 21.38c0.96,0.54 1.6,1.43 1.85,2.41l16.16 64 44.39 -50.28c0.71,-0.8 1.68,-1.23 2.68,-1.28l23.65 -1.2 -0.77 -36.4 -60.23 -54.84 -11.38 0.31 -54.36 55.9zm67.08 -36.1c7.6,-0.2 13.93,5.81 14.12,13.42 0.19,7.6 -5.82,13.92 -13.42,14.11 -7.61,0.2 -13.93,-5.81 -14.12,-13.42 -0.19,-7.6 5.82,-13.92 13.42,-14.11z"/>
  <path class="fil0" d="M110.28 248.77c-0.36,-1.35 -0.59,-2.73 -0.67,-4.12 -0.33,-5.23 1.34,-10.59 5.07,-14.82l18.48 -20.92 3.54 -4.02 50.69 -57.41 -16.8 -66.54 -37.57 -21.14 -3.78 -1.98 0 -0.14 -31.43 -17.69 -11.31 2.93c-13.42,22.14 -27,44.53 -42.58,70.2l23.64 91.97c11.41,15.27 26,30.3 42.72,43.68zm-14.35 -186.19c7.37,-1.89 14.88,2.55 16.78,9.91 1.89,7.37 -2.55,14.88 -9.92,16.77 -7.37,1.9 -14.87,-2.54 -16.77,-9.91 -1.89,-7.37 2.55,-14.88 9.91,-16.77z"/>
  <path class="fil0" d="M232.54 298.6l100.13 -112.44c0,0 1.7,-1.84 2.17,-3.05 0.46,-1.21 0.29,-3.91 0.29,-3.91l-6.64 -79.39 -8.77 -7.71 -54.72 2.77 -3.73 0.19 -23.55 1.2 -46.12 52.23 -3.07 3.48 -51.69 58.54 -3.56 4.02 -15.73 17.83c-5.57,6.31 -5.47,15.75 -0.1,21.95 7.6,5.67 15.59,10.98 23.87,15.83 5.05,2.96 10.22,5.74 15.47,8.32l7.62 3.57c21.86,9.75 45.03,15.89 68.13,16.57zm77.36 -184.3c5.7,5.03 6.24,13.74 1.21,19.44 -5.04,5.7 -13.74,6.24 -19.45,1.21 -5.7,-5.04 -6.24,-13.74 -1.21,-19.44 5.04,-5.71 13.75,-6.25 19.45,-1.21z"/>
  <path class="fil0" d="M76.8 58.9l-0.08 0.02 -0.08 0.02 -0.08 0.02 -0.08 0.01 -0.98 0.21 -0.09 0.01 -0.07 0.02 -0.09 0.02 -0.08 0.02 -0.07 0.01 -0.01 0 -0.08 0.02 -0.08 0.02 -0.08 0.01 -0.08 0.02 -0.08 0.02 -0.08 0.02 -0.08 0.01 -0.09 0.02 -0.08 0.02 -0.08 0.02 -0.08 0.01 -0.08 0.02 -0.08 0.02 -0.08 0.02 -0.08 0.01 -0.08 0.02 -0.08 0.02 -0.08 0.02 -0.08 0.02 -0.24 0.05 -0.08 0.02 -0.08 0.02 -0.08 0.02 -0.08 0.01 -0.08 0.02 -0.08 0.02 -0.08 0.02 -0.08 0.02 -0.08 0.01 -0.07 0.02 -0.08 0.02 -0.08 0.02 -0.08 0.02 -0.08 0.02 -0.08 0.02 -0.08 0.01 -0.08 0.02 -0.08 0.02 -0.16 0.04 -0.08 0.02c-33.4,7.9 -52.6,23.93 -62.4,42.98 -43.63,84.92 77.39,185.19 147.82,210.24 9.85,3.51 20.24,6.38 30.9,8.61l0.36 0.08 0.36 0.07 0.25 0.05 0.12 0.03 0.36 0.07 0.36 0.07 0.37 0.08 0.36 0.07 0.08 0.02 0.29 0.05 0.36 0.08 0.36 0.07 0.37 0.07 0.27 0.05 0.09 0.02 0.37 0.07 0.36 0.07 0.37 0.06 0.36 0.07 0.11 0.02 0.26 0.05 0.36 0.07 0.37 0.07 0.37 0.06 0.36 0.07 0.37 0.06 0.36 0.07 0.37 0.06 0.37 0.07 0.13 0.02 0.23 0.04 0.37 0.06 0.37 0.07 0.36 0.06 0.34 0.05 0.03 0.01 0.37 0.06 0.37 0.06 0.37 0.06 0.36 0.06 0.17 0.03 0.2 0.03 0.37 0.05 0.37 0.06 0.36 0.06 0.37 0.06 0.37 0.05 0.37 0.06 0.37 0.06 0.37 0.05 0.2 0.03 0.17 0.02 0.36 0.06 0.37 0.05 0.37 0.05 0.37 0.05 0.03 0.01 0.34 0.05 0.37 0.05 0.37 0.05 0.37 0.05 0.23 0.03 0.14 0.02 0.37 0.05 0.37 0.05 0.37 0.05 0.37 0.04 0.06 0.01 0.31 0.04 0.74 0.09 0.36 0.05 0.27 0.03 0.1 0.01 0.37 0.05 0.37 0.04c17.08,2.03 34.25,2.46 50.41,1.23 72.9,-5.58 106.86,-61.04 96.98,-105.88 -2.93,-13.31 -9.72,-25.67 -20.5,-35.53l-0.04 -0.04 -0.02 -0.01 -0.03 -0.03 -0.04 -0.04 -0.04 -0.04 -0.05 -0.04 -0.04 -0.04 -0.05 -0.04 -0.04 -0.04 -0.04 -0.04 -0.05 -0.04 -0.04 -0.04 -0.05 -0.04 -0.04 -0.04 -0.04 -0.03 -0.01 -0.01 -0.04 -0.03 -0.05 -0.04 -0.04 -0.04 -0.04 -0.04 -0.05 -0.04 -0.04 -0.04 -0.05 -0.04 -0.04 -0.04 -0.05 -0.04 -0.04 -0.04 -0.05 -0.04 -0.04 -0.04 -0.02 -0.02 -0.03 -0.02 -0.04 -0.04 -0.05 -0.04 -0.05 -0.04 -0.04 -0.04 -0.04 -0.03 -0.05 -0.04 -0.04 -0.04 -0.05 -0.04 -0.05 -0.04 -0.04 -0.04 -0.05 -0.04 -0.04 -0.04 0 0 -0.05 -0.04 -0.04 -0.04 -0.05 -0.04 -0.04 -0.03 -0.05 -0.04 -0.05 -0.04 -0.14 -0.12 -0.04 -0.04 -0.05 -0.04 -0.04 -0.03 -0.02 -0.02 -0.03 -0.02 -0.09 -0.08 -0.05 -0.04 -0.04 -0.04 -0.05 -0.04 -0.05 -0.03 -0.09 -0.08 -0.05 -0.04 -0.04 -0.04 -0.05 -0.04 -0.05 -0.04 0.03 0.06 0.03 0.06 0.03 0.07 0.03 0.06 0.02 0.06 0.03 0.06 0.03 0.06 0 0.01 0.03 0.05 0.03 0.06 0.02 0.06 0.03 0.06 0.03 0.06 0.03 0.06 0.02 0.06 0.01 0.02 0.02 0.04 0.03 0.06 0.03 0.06 0.02 0.06 0.03 0.06 0.03 0.06 0.03 0.06 0.01 0.03 0.01 0.03 0.03 0.06 0.03 0.06 0.02 0.06 0.03 0.06 0.03 0.06 0.03 0.06 0.01 0.04 0.01 0.02 0.03 0.06 0.03 0.06 0.02 0.06 0.03 0.06 0.03 0.06 0.02 0.06 0.03 0.04 0 0.02 0.03 0.06 0.03 0.06 0.02 0.05 0.03 0.06 0.03 0.06 0.02 0.06 0.03 0.06 0.02 0.06 0.03 0.06 0.03 0.06 0.02 0.06 0.03 0.06 0.03 0.06 0.02 0.06 0.01 0.01 0.02 0.05 0.03 0.06 0.02 0.06 0.03 0.06 0.02 0.06 0.03 0.06 0.03 0.05 0 0.02 0.02 0.04 0.06 0.12 0.02 0.06 0.03 0.06 0.02 0.06 0.03 0.06c3.42,7.78 6.06,15.06 7.86,21.85 16.56,61.55 -59.4,94.11 -109.14,93.8 -0.56,-0.01 -1.11,-0.02 -1.67,-0.03l-0.08 0 -0.08 -0.01 -0.08 0 -0.07 0 -0.08 0 -0.08 0 -0.08 0 -0.08 0 -0.07 -0.01 -0.08 0 -0.08 0 -1.24 -0.03 -0.08 0 -0.08 -0.01 -0.08 0 -0.08 0c-0.78,-0.03 -1.56,-0.05 -2.33,-0.09l-0.08 -0.01 -0.08 0 -0.08 0c-25.01,-1.27 -50,-8.68 -73.28,-20l-0.11 -0.05 -0.11 -0.06 -0.11 -0.05 -0.11 -0.05 -0.12 -0.06 -0.11 -0.05 -0.11 -0.06 -1.67 -0.82 -0.11 -0.06 -0.11 -0.05 -0.11 -0.06 -0.11 -0.06 -0.11 -0.05 -0.11 -0.06 -0.11 -0.06 -0.11 -0.05 -0.11 -0.06 -0.12 -0.05 -0.11 -0.06 -0.11 -0.06 -0.11 -0.05 -1.32 -0.68 -0.11 -0.06 -0.11 -0.05 -0.11 -0.06 -0.66 -0.35 -0.12 -0.05 -0.22 -0.12 -0.1 -0.06 -0.12 -0.05 -0.1 -0.06 -0.12 -0.06 -0.11 -0.06c-3.7,-1.95 -7.36,-4.01 -10.96,-6.15l-0.37 -0.22 -0.37 -0.22 -2.24 -1.36 -0.37 -0.23 -0.37 -0.22 -1.85 -1.15 -0.36 -0.24 -0.37 -0.23 -0.37 -0.23 -1.46 -0.94 -0.37 -0.24 -0.36 -0.23 -0.37 -0.24 -0.36 -0.24 -1.45 -0.95 -0.36 -0.24 -0.36 -0.25 -0.36 -0.24 -1.79 -1.21 -0.36 -0.25 -0.36 -0.24 -0.36 -0.25 -0.35 -0.25 -1.42 -0.99 -0.35 -0.25 -0.36 -0.25 -0.35 -0.24 -0.35 -0.26 -1.41 -1 -0.35 -0.26 -0.34 -0.25 -0.35 -0.25 -0.35 -0.26 -1.39 -1.02 -0.35 -0.26 -0.34 -0.26 0 0c-17.27,-12.91 -32.57,-27.61 -44.92,-42.78l-0.09 -0.11 -0.1 -0.12 -0.09 -0.12 -0.1 -0.12 -0.1 -0.12c-0.5,-0.62 -1.01,-1.25 -1.51,-1.88l-0.09 -0.12 -0.09 -0.12 -0.1 -0.12 -0.09 -0.12 -1.1 -1.42 -0.1 -0.12 -0.09 -0.11 -0.09 -0.12 -0.09 -0.12 -0.09 -0.12 -0.09 -0.12 -0.09 -0.12 -0.09 -0.11 -1.26 -1.66 -0.08 -0.12 -0.09 -0.12 -0.09 -0.12 -0.09 -0.12 -0.09 -0.12c-2.04,-2.75 -3.99,-5.52 -5.82,-8.27 -37.94,-57.15 -48.09,-116.37 13.02,-137.83l0 0 0.08 -0.03c0.65,-0.23 1.3,-0.45 1.96,-0.67l0.09 -0.03 0.08 -0.02 0.09 -0.03 0.09 -0.03 0.17 -0.06 0.08 -0.02 0.09 -0.03 0 0c0.93,-0.3 1.87,-0.59 2.82,-0.88z"/>
 </g>
</svg>
