<?xml version="1.0" encoding="UTF-8"?>
<!DOCTYPE svg PUBLIC "-//W3C//DTD SVG 1.1//EN" "http://www.w3.org/Graphics/SVG/1.1/DTD/svg11.dtd">
<!-- Creator: CorelDRAW 2019 (64-Bit) -->
<svg xmlns="http://www.w3.org/2000/svg" xml:space="preserve" width="485px" height="404px" version="1.1" style="shape-rendering:geometricPrecision; text-rendering:geometricPrecision; image-rendering:optimizeQuality; fill-rule:evenodd; clip-rule:evenodd"
viewBox="0 0 101.65 84.6"
 xmlns:xlink="http://www.w3.org/1999/xlink">
 <defs>
  <style type="text/css">
   <![CDATA[
    .fil4 {fill:#FEFEFE}
    .fil2 {fill:#373435}
    .fil5 {fill:#EC268F}
    .fil6 {fill:#6C3D94}
    .fil3 {fill:#FEFEFE;fill-rule:nonzero}
    .fil1 {fill:#373435;fill-rule:nonzero}
    .fil0 {fill:#6C3D94;fill-rule:nonzero}
   ]]>
  </style>
 </defs>
 <g id="Capa_x0020_1">
  <metadata id="CorelCorpID_0Corel-Layer"/>
  <path class="fil0" d="M6.6 63.83l4.8 0 0 -2.26 -4.86 0c-4.47,0 -6.54,2.13 -6.54,6.7 0,2.35 0.7,4.05 2.13,5.11 1.35,1.02 2.65,1.14 4.33,1.14l4.94 0 0 -2.26 -4.8 0c-2.3,0 -3.29,-0.84 -3.31,-3.17l8.11 0 0 -2.26 -8.09 0c0.12,-2.03 1.18,-3 3.29,-3zm10.39 0l0 10.69 3.02 0 0 -10.69 4.51 0 0 -2.26 -12.02 0 0 2.26 4.49 0zm12.02 10.69l0 -12.95 -3.06 0 0 12.95 3.06 0zm8.61 -10.73l4.8 0 0 -2.22 -4.86 0c-4.47,0 -6.54,2.13 -6.54,6.71 0,2.34 0.7,4.04 2.13,5.1 1.35,1.02 2.65,1.14 4.33,1.14l4.94 0 0 -2.26 -4.8 0c-2.46,0 -3.41,-0.97 -3.41,-3.87 0,-3.21 0.95,-4.6 3.41,-4.6zm12.98 -0.27c2.58,0 3.76,1.47 3.76,4.52 0,3.05 -1.18,4.51 -3.76,4.51 -2.61,0 -3.73,-1.46 -3.73,-4.62 0,-2.94 1.22,-4.41 3.73,-4.41zm-6.92 4.39c0,4.72 2.14,6.88 6.92,6.88 4.72,0 6.93,-2.16 6.93,-6.75 0,-4.59 -2.21,-6.74 -6.93,-6.74 -4.66,0 -6.92,2.15 -6.92,6.61zm15.84 -6.34l0 12.95 2.93 0 0 -5.09 3.44 0 3.06 5.09 3.29 0 -3.47 -5.42c1.8,-0.36 2.81,-1.64 2.81,-3.63 0,-2.72 -1.57,-3.9 -4.86,-3.9l-7.2 0zm6.51 2.32c1.74,0 2.59,0.28 2.59,1.61 0,1.31 -0.85,1.64 -2.59,1.64l-3.58 0 0 -3.25 3.58 0zm19.75 0l0 -2.32 -7.64 0c-3.31,0 -4.88,1.16 -4.88,3.97 0,2.59 1.45,3.71 4.63,3.71l3.44 0c1.41,0 2.07,0.34 2.07,1.5 0,1.12 -0.71,1.46 -2.26,1.46l-7.32 0 0 2.31 7.78 0c3.29,0 4.86,-1.15 4.86,-3.88 0,-2.71 -1.34,-3.67 -4.43,-3.67l-3.87 0c-1.22,0 -1.84,-0.46 -1.84,-1.4 0,-1.18 0.72,-1.68 2.24,-1.68l7.22 0zm6.85 -2.32l-5.88 12.95 3.1 0 1.23 -3.09 6.04 0 1.28 3.09 3.25 0 -5.92 -12.95 -3.1 0zm1.43 2.58l2.11 4.97 -4.14 0 2.03 -4.97z"/>
  <path class="fil1" d="M29.73 79.13c0.32,0.19 0.58,0.43 0.76,0.74 0.18,0.3 0.28,0.66 0.28,1.07 0,0.52 -0.11,1 -0.33,1.44 -0.22,0.44 -0.53,0.81 -0.93,1.12 -0.4,0.31 -0.86,0.55 -1.39,0.71 -0.52,0.17 -1.1,0.25 -1.73,0.25l-3.25 0 0.08 -0.3c0.07,0 0.18,-0.01 0.32,-0.03 0.15,-0.01 0.25,-0.03 0.32,-0.05 0.12,-0.04 0.2,-0.09 0.26,-0.17 0.07,-0.07 0.11,-0.15 0.13,-0.25l1 -4.05c0.02,-0.06 0.03,-0.11 0.03,-0.14 0.01,-0.04 0.01,-0.07 0.01,-0.09 0,-0.12 -0.06,-0.2 -0.18,-0.27 -0.13,-0.06 -0.33,-0.11 -0.61,-0.15l0.07 -0.3 3.19 0c0.33,0 0.66,0.03 1.01,0.11 0.35,0.07 0.66,0.19 0.96,0.36zm-1.3 3.9c0.21,-0.33 0.36,-0.68 0.46,-1.07 0.1,-0.39 0.15,-0.8 0.15,-1.22 0,-0.53 -0.13,-0.95 -0.38,-1.26 -0.26,-0.31 -0.65,-0.47 -1.17,-0.47 -0.1,0 -0.2,0 -0.3,0 -0.1,0.01 -0.18,0.01 -0.24,0.02l-1.08 4.35c-0.01,0.04 -0.02,0.09 -0.03,0.15 -0.01,0.06 -0.01,0.1 -0.01,0.13 0,0.17 0.07,0.29 0.2,0.35 0.14,0.07 0.33,0.1 0.57,0.1 0.4,0 0.76,-0.1 1.07,-0.29 0.3,-0.2 0.56,-0.46 0.76,-0.79zm4.83 1.56c-0.35,0 -0.66,-0.05 -0.92,-0.14 -0.27,-0.08 -0.49,-0.21 -0.66,-0.36 -0.17,-0.16 -0.3,-0.35 -0.38,-0.56 -0.09,-0.21 -0.13,-0.44 -0.13,-0.69 0,-0.32 0.06,-0.63 0.19,-0.94 0.13,-0.3 0.32,-0.57 0.58,-0.81 0.24,-0.23 0.54,-0.42 0.91,-0.57 0.37,-0.14 0.77,-0.21 1.22,-0.21 0.52,0 0.92,0.08 1.2,0.23 0.27,0.16 0.4,0.39 0.4,0.7 0,0.3 -0.11,0.55 -0.35,0.76 -0.24,0.22 -0.56,0.38 -0.97,0.48 -0.32,0.09 -0.59,0.15 -0.82,0.19 -0.23,0.04 -0.51,0.08 -0.83,0.11 0,0.12 0.02,0.25 0.05,0.4 0.03,0.15 0.07,0.28 0.13,0.39 0.07,0.12 0.17,0.22 0.3,0.29 0.13,0.07 0.29,0.11 0.49,0.11 0.35,0 0.64,-0.07 0.88,-0.19 0.25,-0.12 0.48,-0.32 0.7,-0.59l0.32 0.25c-0.27,0.35 -0.6,0.63 -1.01,0.83 -0.42,0.21 -0.85,0.32 -1.3,0.32zm0.99 -3.24c0,-0.23 -0.05,-0.41 -0.14,-0.53 -0.09,-0.12 -0.21,-0.19 -0.38,-0.19 -0.22,0 -0.44,0.17 -0.64,0.52 -0.2,0.34 -0.33,0.77 -0.38,1.29 0.17,-0.02 0.34,-0.04 0.51,-0.07 0.17,-0.03 0.31,-0.06 0.41,-0.11 0.22,-0.09 0.38,-0.2 0.47,-0.34 0.1,-0.15 0.15,-0.33 0.15,-0.57zm3.52 3.24c-0.37,0 -0.68,-0.03 -0.92,-0.09 -0.24,-0.05 -0.43,-0.12 -0.57,-0.21 -0.14,-0.09 -0.24,-0.18 -0.29,-0.28 -0.05,-0.1 -0.08,-0.19 -0.08,-0.28 0,-0.16 0.06,-0.3 0.19,-0.41 0.13,-0.12 0.29,-0.18 0.51,-0.18 0.17,0 0.32,0.04 0.43,0.13 0.12,0.08 0.22,0.19 0.3,0.31 0.07,0.12 0.13,0.25 0.18,0.39 0.05,0.14 0.09,0.25 0.11,0.32 0.33,0 0.58,-0.07 0.74,-0.2 0.17,-0.14 0.26,-0.31 0.26,-0.54 0,-0.1 -0.03,-0.19 -0.08,-0.26 -0.05,-0.06 -0.12,-0.13 -0.2,-0.18 -0.08,-0.05 -0.19,-0.09 -0.32,-0.14 -0.14,-0.05 -0.26,-0.09 -0.39,-0.13 -0.35,-0.11 -0.63,-0.27 -0.84,-0.46 -0.2,-0.2 -0.31,-0.45 -0.31,-0.74 0,-0.18 0.05,-0.34 0.13,-0.49 0.09,-0.16 0.22,-0.3 0.41,-0.43 0.18,-0.12 0.41,-0.23 0.69,-0.3 0.27,-0.07 0.6,-0.11 0.97,-0.11 0.22,0 0.43,0.01 0.62,0.03 0.19,0.03 0.36,0.07 0.52,0.14 0.16,0.06 0.28,0.15 0.37,0.25 0.08,0.11 0.13,0.24 0.13,0.39 0,0.15 -0.06,0.27 -0.19,0.38 -0.12,0.11 -0.27,0.16 -0.47,0.16 -0.17,0 -0.31,-0.04 -0.42,-0.12 -0.11,-0.08 -0.2,-0.18 -0.27,-0.29 -0.07,-0.11 -0.13,-0.23 -0.17,-0.35 -0.04,-0.12 -0.07,-0.23 -0.1,-0.31 -0.2,0.01 -0.39,0.08 -0.56,0.21 -0.16,0.13 -0.25,0.28 -0.25,0.47 0,0.12 0.02,0.21 0.06,0.27 0.04,0.07 0.09,0.12 0.16,0.16 0.08,0.05 0.17,0.1 0.29,0.14 0.11,0.04 0.25,0.09 0.43,0.15 0.39,0.13 0.69,0.28 0.89,0.47 0.2,0.18 0.3,0.42 0.3,0.72 0,0.19 -0.05,0.38 -0.15,0.56 -0.09,0.18 -0.24,0.33 -0.42,0.45 -0.2,0.13 -0.43,0.23 -0.69,0.3 -0.26,0.06 -0.6,0.1 -1,0.1zm6.09 -0.64l-0.03 0c-0.1,0.08 -0.2,0.16 -0.29,0.23 -0.1,0.06 -0.22,0.13 -0.36,0.2 -0.14,0.07 -0.27,0.12 -0.4,0.15 -0.13,0.04 -0.28,0.06 -0.45,0.06 -0.51,0 -0.89,-0.14 -1.14,-0.42 -0.26,-0.28 -0.39,-0.66 -0.39,-1.15 0,-0.37 0.07,-0.72 0.21,-1.05 0.14,-0.33 0.33,-0.62 0.57,-0.86 0.24,-0.25 0.51,-0.44 0.84,-0.59 0.32,-0.14 0.66,-0.21 1.02,-0.21 0.26,0 0.49,0.02 0.67,0.08 0.18,0.05 0.33,0.12 0.45,0.21l0.32 -1.33c0.01,-0.04 0.02,-0.08 0.03,-0.12 0,-0.05 0.01,-0.08 0.01,-0.11 0,-0.09 -0.03,-0.17 -0.08,-0.23 -0.05,-0.06 -0.12,-0.11 -0.2,-0.15 -0.08,-0.03 -0.18,-0.06 -0.28,-0.08 -0.11,-0.01 -0.22,-0.03 -0.35,-0.04l0.08 -0.3 2.46 -0.11 0.05 0.07 -1.18 4.75c-0.02,0.08 -0.04,0.19 -0.07,0.32 -0.03,0.13 -0.04,0.22 -0.04,0.29 0,0.15 0.04,0.26 0.11,0.32 0.07,0.06 0.21,0.09 0.39,0.09 0.08,0 0.18,-0.02 0.3,-0.05 0.11,-0.03 0.19,-0.05 0.24,-0.07l-0.1 0.37c-0.29,0.1 -0.52,0.19 -0.69,0.24 -0.17,0.06 -0.37,0.09 -0.6,0.09 -0.3,0 -0.54,-0.06 -0.72,-0.17 -0.18,-0.11 -0.31,-0.25 -0.38,-0.43zm0.52 -2.62c0,-0.07 -0.01,-0.14 -0.03,-0.21 -0.02,-0.07 -0.06,-0.14 -0.11,-0.21 -0.06,-0.07 -0.13,-0.12 -0.21,-0.16 -0.08,-0.04 -0.19,-0.06 -0.33,-0.06 -0.18,0 -0.36,0.07 -0.52,0.2 -0.16,0.13 -0.3,0.3 -0.42,0.53 -0.12,0.21 -0.21,0.45 -0.28,0.74 -0.07,0.28 -0.11,0.58 -0.11,0.88 0,0.13 0.01,0.26 0.04,0.37 0.02,0.12 0.05,0.21 0.1,0.29 0.05,0.09 0.12,0.15 0.21,0.2 0.09,0.04 0.2,0.07 0.33,0.07 0.14,0 0.27,-0.04 0.41,-0.12 0.13,-0.07 0.25,-0.16 0.36,-0.27l0.56 -2.25zm4.47 3.26c-0.35,0 -0.66,-0.05 -0.93,-0.14 -0.26,-0.08 -0.48,-0.21 -0.65,-0.36 -0.17,-0.16 -0.3,-0.35 -0.38,-0.56 -0.09,-0.21 -0.13,-0.44 -0.13,-0.69 0,-0.32 0.06,-0.63 0.19,-0.94 0.13,-0.3 0.32,-0.57 0.58,-0.81 0.24,-0.23 0.54,-0.42 0.91,-0.57 0.37,-0.14 0.77,-0.21 1.22,-0.21 0.52,0 0.92,0.08 1.19,0.23 0.28,0.16 0.41,0.39 0.41,0.7 0,0.3 -0.11,0.55 -0.35,0.76 -0.24,0.22 -0.56,0.38 -0.97,0.48 -0.32,0.09 -0.6,0.15 -0.82,0.19 -0.23,0.04 -0.51,0.08 -0.84,0.11 0.01,0.12 0.03,0.25 0.06,0.4 0.03,0.15 0.07,0.28 0.13,0.39 0.07,0.12 0.17,0.22 0.3,0.29 0.13,0.07 0.29,0.11 0.49,0.11 0.35,0 0.64,-0.07 0.88,-0.19 0.24,-0.12 0.47,-0.32 0.69,-0.59l0.33 0.25c-0.27,0.35 -0.6,0.63 -1.01,0.83 -0.42,0.21 -0.85,0.32 -1.3,0.32zm0.99 -3.24c0,-0.23 -0.05,-0.41 -0.14,-0.53 -0.09,-0.12 -0.22,-0.19 -0.38,-0.19 -0.22,0 -0.44,0.17 -0.64,0.52 -0.2,0.34 -0.33,0.77 -0.38,1.29 0.17,-0.02 0.34,-0.04 0.51,-0.07 0.17,-0.03 0.31,-0.06 0.41,-0.11 0.22,-0.09 0.37,-0.2 0.47,-0.34 0.1,-0.15 0.15,-0.33 0.15,-0.57zm5.41 -1.04c0.19,-0.12 0.43,-0.21 0.71,-0.28 0.29,-0.07 0.6,-0.11 0.95,-0.11 0.66,0 1.2,0.11 1.59,0.32 0.39,0.22 0.59,0.54 0.59,0.96 0,0.26 -0.06,0.48 -0.19,0.66 -0.12,0.18 -0.31,0.34 -0.57,0.46 -0.22,0.12 -0.5,0.22 -0.84,0.31 -0.34,0.08 -0.73,0.17 -1.17,0.26 -0.26,0.05 -0.49,0.11 -0.72,0.18 -0.22,0.06 -0.42,0.14 -0.61,0.22l-0.02 0.07 3.72 0 -0.28 1.1 -4.75 0 0.2 -0.82c0.1,-0.07 0.22,-0.15 0.35,-0.23 0.13,-0.08 0.27,-0.16 0.4,-0.23 0.19,-0.1 0.39,-0.2 0.59,-0.28 0.19,-0.09 0.36,-0.16 0.51,-0.23 0.38,-0.15 0.67,-0.28 0.87,-0.39 0.2,-0.1 0.37,-0.21 0.49,-0.33 0.14,-0.13 0.24,-0.27 0.29,-0.42 0.05,-0.14 0.08,-0.3 0.08,-0.46 0,-0.25 -0.07,-0.44 -0.22,-0.57 -0.14,-0.13 -0.33,-0.19 -0.57,-0.19 -0.17,0 -0.31,0.01 -0.42,0.04 -0.1,0.03 -0.2,0.06 -0.29,0.1 0.04,0.1 0.09,0.22 0.13,0.34 0.05,0.13 0.07,0.26 0.07,0.41 0,0.19 -0.07,0.35 -0.22,0.48 -0.14,0.12 -0.33,0.19 -0.56,0.19 -0.22,0 -0.4,-0.07 -0.53,-0.21 -0.13,-0.13 -0.19,-0.29 -0.19,-0.48 0,-0.15 0.05,-0.3 0.15,-0.46 0.11,-0.15 0.26,-0.29 0.46,-0.41zm9.61 0.17c0.18,0.16 0.32,0.35 0.41,0.56 0.09,0.22 0.13,0.45 0.13,0.69 0,0.41 -0.09,0.8 -0.27,1.15 -0.18,0.36 -0.41,0.66 -0.71,0.91 -0.31,0.26 -0.67,0.46 -1.06,0.59 -0.4,0.15 -0.83,0.22 -1.29,0.22 -0.38,0 -0.71,-0.05 -1,-0.15 -0.28,-0.1 -0.52,-0.23 -0.71,-0.39 -0.18,-0.16 -0.32,-0.34 -0.42,-0.56 -0.1,-0.21 -0.15,-0.45 -0.15,-0.7 0,-0.38 0.08,-0.74 0.23,-1.07 0.15,-0.34 0.37,-0.64 0.66,-0.92 0.29,-0.27 0.64,-0.48 1.06,-0.64 0.42,-0.17 0.88,-0.25 1.39,-0.25 0.39,0 0.73,0.05 1.02,0.16 0.29,0.1 0.53,0.23 0.71,0.4zm-1.49 2.8c0.15,-0.29 0.26,-0.6 0.34,-0.94 0.08,-0.34 0.11,-0.7 0.11,-1.07 0,-0.15 -0.01,-0.29 -0.04,-0.4 -0.03,-0.12 -0.07,-0.22 -0.14,-0.31 -0.06,-0.09 -0.14,-0.16 -0.23,-0.21 -0.1,-0.06 -0.22,-0.08 -0.36,-0.08 -0.23,0 -0.45,0.08 -0.66,0.24 -0.21,0.16 -0.4,0.42 -0.58,0.77 -0.14,0.29 -0.25,0.6 -0.33,0.94 -0.07,0.34 -0.11,0.67 -0.11,1.01 0,0.17 0.02,0.31 0.04,0.42 0.03,0.1 0.08,0.21 0.14,0.3 0.06,0.09 0.14,0.17 0.24,0.22 0.1,0.06 0.22,0.08 0.36,0.08 0.24,0 0.47,-0.09 0.68,-0.26 0.22,-0.18 0.39,-0.41 0.54,-0.71zm7.78 -2.8c0.18,0.16 0.32,0.35 0.41,0.56 0.09,0.22 0.14,0.45 0.14,0.69 0,0.41 -0.09,0.8 -0.27,1.15 -0.18,0.36 -0.42,0.66 -0.72,0.91 -0.31,0.26 -0.66,0.46 -1.06,0.59 -0.4,0.15 -0.82,0.22 -1.29,0.22 -0.37,0 -0.71,-0.05 -0.99,-0.15 -0.29,-0.1 -0.53,-0.23 -0.71,-0.39 -0.19,-0.16 -0.33,-0.34 -0.43,-0.56 -0.09,-0.21 -0.14,-0.45 -0.14,-0.7 0,-0.38 0.07,-0.74 0.22,-1.07 0.15,-0.34 0.37,-0.64 0.67,-0.92 0.28,-0.27 0.63,-0.48 1.05,-0.64 0.42,-0.17 0.88,-0.25 1.39,-0.25 0.39,0 0.74,0.05 1.02,0.16 0.29,0.1 0.53,0.23 0.71,0.4zm-1.49 2.8c0.15,-0.29 0.26,-0.6 0.34,-0.94 0.08,-0.34 0.12,-0.7 0.12,-1.07 0,-0.15 -0.02,-0.29 -0.05,-0.4 -0.02,-0.12 -0.07,-0.22 -0.13,-0.31 -0.07,-0.09 -0.14,-0.16 -0.24,-0.21 -0.1,-0.06 -0.21,-0.08 -0.35,-0.08 -0.24,0 -0.46,0.08 -0.67,0.24 -0.21,0.16 -0.4,0.42 -0.58,0.77 -0.14,0.29 -0.25,0.6 -0.32,0.94 -0.08,0.34 -0.11,0.67 -0.11,1.01 0,0.17 0.01,0.31 0.04,0.42 0.02,0.1 0.07,0.21 0.13,0.3 0.06,0.09 0.14,0.17 0.24,0.22 0.1,0.06 0.22,0.08 0.36,0.08 0.25,0 0.48,-0.09 0.69,-0.26 0.21,-0.18 0.39,-0.41 0.53,-0.71zm7.78 -2.8c0.19,0.16 0.32,0.35 0.41,0.56 0.09,0.22 0.14,0.45 0.14,0.69 0,0.41 -0.09,0.8 -0.27,1.15 -0.18,0.36 -0.42,0.66 -0.72,0.91 -0.31,0.26 -0.66,0.46 -1.06,0.59 -0.39,0.15 -0.82,0.22 -1.28,0.22 -0.38,0 -0.71,-0.05 -1,-0.15 -0.29,-0.1 -0.52,-0.23 -0.71,-0.39 -0.19,-0.16 -0.33,-0.34 -0.42,-0.56 -0.1,-0.21 -0.15,-0.45 -0.15,-0.7 0,-0.38 0.07,-0.74 0.22,-1.07 0.15,-0.34 0.38,-0.64 0.67,-0.92 0.28,-0.27 0.63,-0.48 1.05,-0.64 0.42,-0.17 0.88,-0.25 1.39,-0.25 0.4,0 0.74,0.05 1.03,0.16 0.28,0.1 0.52,0.23 0.7,0.4zm-1.48 2.8c0.14,-0.29 0.26,-0.6 0.33,-0.94 0.08,-0.34 0.12,-0.7 0.12,-1.07 0,-0.15 -0.01,-0.29 -0.04,-0.4 -0.03,-0.12 -0.08,-0.22 -0.14,-0.31 -0.06,-0.09 -0.14,-0.16 -0.24,-0.21 -0.1,-0.06 -0.21,-0.08 -0.35,-0.08 -0.23,0 -0.46,0.08 -0.67,0.24 -0.2,0.16 -0.4,0.42 -0.58,0.77 -0.14,0.29 -0.25,0.6 -0.32,0.94 -0.07,0.34 -0.11,0.67 -0.11,1.01 0,0.17 0.01,0.31 0.04,0.42 0.03,0.1 0.07,0.21 0.14,0.3 0.05,0.09 0.13,0.17 0.23,0.22 0.1,0.06 0.22,0.08 0.36,0.08 0.25,0 0.48,-0.09 0.69,-0.26 0.21,-0.18 0.39,-0.41 0.54,-0.71z"/>
  <g id="_1813416354736">
   <g>
    <path class="fil2" d="M26.55 19.52l7.58 -11.67 2.01 -0.48 12.96 6.8 7.9 29.19c0.4,1.48 -0.5,3.32 -2.13,3.37l-12.97 0.41c-1.63,0.05 -2.46,-0.91 -3.61,-2l-6.34 -6 -5.4 -19.62z"/>
    <path id="1" class="fil3" d="M34.72 8.18l-7.59 11.67 -1.16 -0.66 7.58 -11.67 0.41 -0.29 0.76 0.95zm-1.17 -0.66c0.19,-0.3 0.61,-0.4 0.94,-0.21 0.32,0.18 0.42,0.57 0.23,0.87l-1.17 -0.66zm2.77 0.46l-2.02 0.49 -0.34 -1.24 2.01 -0.48 0.51 0.06 -0.16 1.17zm-0.35 -1.23c0.37,-0.09 0.74,0.12 0.84,0.46 0.09,0.34 -0.13,0.69 -0.49,0.77l-0.35 -1.23zm12.8 7.98l-12.96 -6.81 0.67 -1.11 12.96 6.8 0.33 0.4 -1 0.72zm0.67 -1.12c0.33,0.18 0.44,0.57 0.26,0.87 -0.19,0.31 -0.6,0.42 -0.93,0.25l0.67 -1.12zm6.9 29.91l-7.9 -29.19 1.33 -0.32 7.9 29.2 -1.33 0.31zm-1.45 3.85l-0.05 -1.27 0 0 0.1 -0.01 0.1 -0.01 0.09 -0.02 0.09 -0.03 0.09 -0.03 0.08 -0.04 0.08 -0.04 0.08 -0.05 0.08 -0.05 0.07 -0.06 0.08 -0.07 0.07 -0.07 0.06 -0.08 0.07 -0.08 0.06 -0.09 0.06 -0.09 0.05 -0.1 0.05 -0.1 0.04 -0.1 0.04 -0.11 0.04 -0.11 0.03 -0.11 0.02 -0.11 0.02 -0.12 0.01 -0.11 0.01 -0.12 0 -0.11 0 -0.12 -0.01 -0.11 -0.01 -0.11 -0.02 -0.11 -0.03 -0.11 1.33 -0.31 0.04 0.17 0.03 0.17 0.02 0.17 0.01 0.18 0.01 0.17 0 0.17 -0.02 0.18 -0.02 0.17 -0.02 0.17 -0.04 0.17 -0.04 0.16 -0.06 0.17 -0.06 0.16 -0.06 0.16 -0.08 0.16 -0.08 0.15 -0.09 0.15 -0.1 0.14 -0.11 0.14 -0.12 0.13 -0.12 0.13 -0.13 0.12 -0.14 0.11 -0.15 0.1 -0.16 0.1 -0.16 0.09 -0.17 0.07 -0.18 0.07 -0.19 0.05 -0.19 0.04 -0.2 0.03 -0.2 0.01 0 0zm-13.01 -0.87l12.96 -0.4 0.05 1.27 -12.96 0.4 0 0 -0.05 -1.27zm-4.08 -0.91l0.98 -0.89 0 0 0.11 0.1 0.1 0.1 0.11 0.1 0.1 0.1 0.1 0.09 0.1 0.1 0.09 0.09 0.1 0.08 0.09 0.09 0.09 0.08 0.1 0.08 0.09 0.07 0.09 0.07 0.08 0.07 0.09 0.07 0.09 0.06 0.09 0.05 0.09 0.06 0.08 0.04 0.09 0.05 0.09 0.04 0.09 0.04 0.09 0.03 0.1 0.03 0.09 0.03 0.1 0.02 0.1 0.02 0.1 0.02 0.11 0.01 0.11 0.01 0.12 0 0.12 0 0.05 1.27 -0.18 0.01 -0.18 -0.01 -0.17 -0.01 -0.17 -0.02 -0.16 -0.02 -0.16 -0.03 -0.16 -0.04 -0.15 -0.04 -0.15 -0.05 -0.14 -0.06 -0.14 -0.06 -0.14 -0.06 -0.13 -0.07 -0.13 -0.07 -0.13 -0.08 -0.12 -0.07 -0.12 -0.08 -0.11 -0.09 -0.12 -0.09 -0.11 -0.08 -0.11 -0.09 -0.11 -0.1 -0.1 -0.09 -0.11 -0.09 -0.1 -0.1 -0.1 -0.1 -0.11 -0.09 -0.1 -0.1 -0.1 -0.1 -0.11 -0.1 -0.1 -0.1 -0.11 -0.1 0 0zm-5.36 -6.9l6.34 6.01 -0.98 0.89 -6.33 -6 -0.18 -0.29 1.15 -0.61zm-0.97 0.9c-0.27,-0.25 -0.26,-0.65 0.01,-0.9 0.26,-0.25 0.7,-0.25 0.96,0l-0.97 0.9zm-4.26 -20.23l5.41 19.62 -1.33 0.32 -5.4 -19.62 0.08 -0.49 1.24 0.17zm-1.32 0.32c-0.09,-0.34 0.13,-0.69 0.49,-0.78 0.37,-0.09 0.74,0.12 0.83,0.46l-1.32 0.32z"/>
   </g>
   <path class="fil4" d="M35.81 11.12c1.31,-0.31 2.65,0.42 2.99,1.65 0.33,1.22 -0.46,2.47 -1.77,2.78 -1.31,0.32 -2.65,-0.42 -2.98,-1.64 -0.34,-1.23 0.45,-2.48 1.76,-2.79z"/>
   <g>
    <path class="fil5" d="M43.35 10.47l10.19 -9.78 2.08 -0.05 11 9.34 0.68 30.1c0.03,1.52 -1.26,2.8 -2.89,2.84l-17.2 0.41c-1.63,0.04 -3,-1.18 -3.04,-2.7l-0.82 -30.16z"/>
    <path id="1" class="fil3" d="M54.03 1.13l-10.19 9.79 -0.98 -0.89 10.2 -9.78 0.47 -0.2 0.5 1.08zm-0.97 -0.88c0.26,-0.26 0.69,-0.26 0.96,-0.02 0.27,0.25 0.28,0.65 0.01,0.9l-0.97 -0.88zm2.58 1.02l-2.08 0.06 -0.03 -1.28 2.07 -0.05 0.48 0.17 -0.44 1.1zm-0.04 -1.27c0.38,-0.01 0.7,0.27 0.71,0.62 0.01,0.35 -0.29,0.65 -0.67,0.65l-0.04 -1.27zm10.56 10.45l-11 -9.34 0.92 -0.94 11 9.34 0.22 0.46 -1.14 0.48zm0.92 -0.94c0.28,0.23 0.3,0.64 0.04,0.9 -0.25,0.26 -0.68,0.28 -0.96,0.04l0.92 -0.94zm-0.46 30.59l-0.69 -30.11 1.37 -0.02 0.68 30.1 -1.36 0.03zm-2.2 3.46l-0.03 -1.28 0 0 0.12 0 0.11 -0.01 0.12 -0.02 0.11 -0.02 0.11 -0.03 0.1 -0.03 0.11 -0.03 0.1 -0.04 0.1 -0.05 0.1 -0.05 0.09 -0.05 0.09 -0.06 0.09 -0.06 0.08 -0.07 0.08 -0.07 0.08 -0.07 0.08 -0.08 0.07 -0.08 0.06 -0.08 0.06 -0.08 0.06 -0.09 0.05 -0.09 0.05 -0.1 0.05 -0.09 0.03 -0.1 0.04 -0.1 0.03 -0.1 0.02 -0.1 0.02 -0.11 0.01 -0.11 0.01 -0.1 0 -0.11 1.36 -0.03 0 0.17 -0.01 0.18 -0.02 0.17 -0.03 0.16 -0.03 0.17 -0.05 0.16 -0.05 0.16 -0.06 0.16 -0.07 0.15 -0.08 0.15 -0.08 0.14 -0.1 0.14 -0.09 0.14 -0.11 0.13 -0.11 0.13 -0.12 0.12 -0.12 0.11 -0.13 0.11 -0.13 0.11 -0.14 0.1 -0.15 0.09 -0.15 0.08 -0.15 0.08 -0.16 0.08 -0.17 0.06 -0.17 0.06 -0.17 0.05 -0.17 0.04 -0.18 0.04 -0.18 0.02 -0.19 0.02 -0.19 0.01 0 0zm-17.22 -0.87l17.19 -0.41 0.03 1.28 -17.19 0.4 -0.03 -1.27zm-3.71 -2.04l1.37 -0.04 0 0 0 0.11 0.01 0.11 0.02 0.11 0.02 0.1 0.03 0.1 0.04 0.1 0.03 0.1 0.05 0.09 0.05 0.1 0.05 0.09 0.06 0.09 0.06 0.08 0.06 0.08 0.08 0.08 0.07 0.08 0.08 0.07 0.08 0.07 0.08 0.07 0.09 0.06 0.09 0.06 0.1 0.05 0.1 0.05 0.1 0.04 0.1 0.04 0.1 0.04 0.11 0.03 0.11 0.03 0.11 0.02 0.11 0.01 0.11 0.01 0.12 0.01 0.12 0 0.03 1.27 -0.19 0 -0.18 0 -0.18 -0.02 -0.18 -0.03 -0.18 -0.03 -0.18 -0.04 -0.17 -0.05 -0.16 -0.06 -0.17 -0.07 -0.16 -0.07 -0.15 -0.08 -0.15 -0.08 -0.15 -0.09 -0.14 -0.1 -0.13 -0.1 -0.13 -0.11 -0.13 -0.12 -0.12 -0.12 -0.11 -0.13 -0.1 -0.13 -0.1 -0.13 -0.09 -0.14 -0.09 -0.15 -0.08 -0.15 -0.07 -0.15 -0.06 -0.16 -0.05 -0.16 -0.05 -0.16 -0.03 -0.17 -0.03 -0.17 -0.02 -0.17 -0.01 -0.17 0 0zm0.55 -30.2l0.82 30.16 -1.37 0.04 -0.82 -30.16 0.19 -0.46 1.18 0.42zm-1.37 0.04c-0.01,-0.35 0.29,-0.65 0.67,-0.66 0.37,-0.01 0.69,0.27 0.7,0.62l-1.37 0.04z"/>
   </g>
   <path class="fil4" d="M54.61 4.06c1.36,-0.03 2.48,0.97 2.52,2.23 0.03,1.27 -1.04,2.32 -2.39,2.35 -1.36,0.03 -2.48,-0.97 -2.52,-2.23 -0.03,-1.27 1.04,-2.32 2.39,-2.35z"/>
   <g>
    <path class="fil6" d="M61.06 16.72l14.6 -0.7 1.56 1.29 1.24 13.82 -21.46 22.49c-1.08,1.14 -2.96,1.25 -4.19,0.24l-12.89 -10.62c-1.22,-1.01 -1.34,-2.77 -0.26,-3.91l21.4 -22.61z"/>
    <path id="1" class="fil3" d="M75.69 16.66l-14.6 0.69 -0.07 -1.27 14.6 -0.69 0.49 0.16 -0.42 1.11zm-0.07 -1.27c0.38,-0.02 0.7,0.25 0.72,0.6 0.02,0.35 -0.27,0.65 -0.65,0.67l-0.07 -1.27zm1.14 2.39l-1.56 -1.28 0.91 -0.95 1.56 1.28 0.23 0.42 -1.14 0.53zm0.91 -0.95c0.28,0.23 0.31,0.63 0.06,0.9 -0.25,0.26 -0.68,0.29 -0.97,0.05l0.91 -0.95zm0.11 14.36l-1.24 -13.83 1.36 -0.11 1.24 13.83 -0.17 0.48 -1.19 -0.37zm1.36 -0.11c0.03,0.35 -0.25,0.66 -0.63,0.69 -0.37,0.03 -0.7,-0.23 -0.73,-0.58l1.36 -0.11zm-22.65 22.12l21.46 -22.49 1.02 0.85 -21.46 22.48 -1.02 -0.84zm-4.13 1.14l0.9 -0.96 0 0 0.09 0.07 0.1 0.07 0.09 0.06 0.1 0.05 0.1 0.05 0.1 0.05 0.1 0.04 0.11 0.03 0.1 0.03 0.11 0.03 0.11 0.02 0.11 0.02 0.11 0.01 0.11 0 0.11 0 0.11 0 0.11 -0.01 0.1 -0.01 0.11 -0.02 0.11 -0.03 0.11 -0.02 0.1 -0.04 0.1 -0.03 0.11 -0.05 0.1 -0.04 0.09 -0.06 0.1 -0.05 0.09 -0.06 0.09 -0.07 0.09 -0.07 0.08 -0.07 0.08 -0.08 1.02 0.84 -0.13 0.13 -0.13 0.12 -0.14 0.11 -0.14 0.11 -0.15 0.1 -0.15 0.09 -0.16 0.08 -0.16 0.07 -0.16 0.07 -0.16 0.06 -0.17 0.05 -0.17 0.05 -0.17 0.04 -0.17 0.03 -0.17 0.02 -0.18 0.01 -0.17 0.01 -0.18 0 -0.17 -0.01 -0.18 -0.02 -0.17 -0.02 -0.17 -0.04 -0.18 -0.04 -0.17 -0.05 -0.16 -0.05 -0.17 -0.07 -0.16 -0.07 -0.16 -0.08 -0.16 -0.09 -0.15 -0.09 -0.15 -0.11 -0.14 -0.11 0 0zm-11.99 -11.58l12.89 10.62 -0.9 0.96 -12.89 -10.62 0 0 0.9 -0.96zm-1.22 -3.85l1.02 0.84 0 0 -0.07 0.09 -0.07 0.08 -0.07 0.09 -0.06 0.09 -0.05 0.09 -0.05 0.1 -0.04 0.09 -0.04 0.1 -0.03 0.1 -0.03 0.1 -0.02 0.1 -0.02 0.1 -0.01 0.11 -0.01 0.1 0 0.1 0.01 0.1 0.01 0.11 0.01 0.1 0.02 0.1 0.03 0.1 0.03 0.1 0.03 0.1 0.04 0.09 0.05 0.1 0.05 0.09 0.05 0.09 0.06 0.09 0.07 0.08 0.07 0.09 0.07 0.08 0.09 0.08 0.08 0.07 -0.9 0.96 -0.14 -0.12 -0.13 -0.13 -0.12 -0.13 -0.11 -0.13 -0.11 -0.14 -0.1 -0.14 -0.08 -0.14 -0.09 -0.15 -0.07 -0.15 -0.06 -0.16 -0.06 -0.15 -0.05 -0.16 -0.04 -0.16 -0.03 -0.16 -0.02 -0.16 -0.02 -0.17 0 -0.16 0 -0.16 0.01 -0.17 0.02 -0.16 0.02 -0.16 0.04 -0.16 0.04 -0.16 0.05 -0.16 0.06 -0.16 0.07 -0.15 0.08 -0.15 0.09 -0.15 0.09 -0.15 0.11 -0.14 0.11 -0.14 0.12 -0.13 0 0zm22.42 -21.77l-21.4 22.61 -1.02 -0.84 21.39 -22.62 0.48 -0.21 0.55 1.06zm-1.03 -0.85c0.25,-0.26 0.68,-0.29 0.97,-0.05 0.28,0.23 0.31,0.63 0.06,0.9l-1.03 -0.85z"/>
   </g>
   <path class="fil4" d="M73.91 19.71c1.01,0.84 1.11,2.29 0.21,3.23 -0.89,0.95 -2.44,1.04 -3.46,0.2 -1.02,-0.83 -1.11,-2.28 -0.22,-3.23 0.9,-0.94 2.45,-1.03 3.47,-0.2z"/>
   <path class="fil5" d="M32.41 10.51c-6.52,1.23 -10.2,4.01 -12.03,7.33 -7.77,14.11 13.78,30.77 26.32,34.93 5.78,1.92 12.62,2.71 18.65,2.27 12.99,-0.92 19.03,-10.14 17.27,-17.59 -0.57,-2.4 -1.94,-4.62 -4.16,-6.32 0.76,1.53 1.33,2.96 1.7,4.27 2.95,10.23 -10.57,15.64 -19.43,15.58 -12.67,-0.07 -25.51,-8.67 -31.63,-17.27 -6.95,-9.78 -8.67,-19.92 3.31,-23.2z"/>
  </g>
 </g>
</svg>
